<?xml version="1.0" standalone="no"?>
<!DOCTYPE svg PUBLIC "-//W3C//DTD SVG 20010904//EN"
 "http://www.w3.org/TR/2001/REC-SVG-20010904/DTD/svg10.dtd">
<svg version="1.0" xmlns="http://www.w3.org/2000/svg"
 width="225.000000pt" height="225.000000pt" viewBox="0 0 225.000000 225.000000"
 preserveAspectRatio="xMidYMid meet">

<g transform="translate(0.000000,225.000000) scale(0.100000,-0.100000)"
fill="#000000" stroke="none">
<path d="M1350 1721 c-14 -27 -13 -56 4 -70 9 -8 12 -25 8 -56 -3 -30 -1 -45
7 -45 7 0 11 19 11 50 0 28 5 50 10 50 14 0 12 64 -2 78 -17 17 -26 15 -38 -7z"/>
<path d="M1210 1657 c0 -26 28 -57 50 -57 8 0 31 -17 52 -37 21 -20 38 -32 38
-27 0 6 -13 23 -30 39 -16 16 -30 37 -30 46 0 23 -38 59 -62 59 -12 0 -18 -7
-18 -23z"/>
<path d="M1476 1659 c-15 -12 -25 -26 -23 -33 3 -6 -12 -28 -31 -48 -20 -21
-31 -38 -25 -38 6 0 23 14 36 30 14 17 34 30 45 30 25 0 52 31 52 58 0 28 -20
28 -54 1z"/>
<path d="M1173 1540 c-31 -13 -29 -38 3 -51 28 -10 64 -4 64 12 0 5 24 10 53
11 l52 2 -49 3 c-27 2 -55 11 -63 19 -16 16 -28 17 -60 4z"/>
<path d="M1508 1536 c-9 -8 -37 -17 -64 -19 l-49 -3 48 -2 c26 -1 58 -9 71
-17 36 -24 104 7 73 33 -24 20 -63 24 -79 8z"/>
<path d="M1310 1465 c-18 -19 -37 -32 -42 -29 -5 4 -20 -4 -34 -17 -26 -24
-33 -69 -10 -69 21 0 66 39 66 58 0 9 14 31 32 49 17 18 29 35 27 38 -3 2 -20
-11 -39 -30z"/>
<path d="M1390 1494 c0 -6 14 -23 30 -39 17 -16 30 -37 30 -46 0 -19 45 -59
66 -59 19 0 23 22 7 53 -13 25 -24 32 -47 28 -5 -1 -26 15 -48 36 -21 20 -38
32 -38 27z"/>
<path d="M1364 1437 c5 -33 3 -47 -9 -57 -19 -16 -19 -50 -1 -75 12 -16 16
-17 30 -6 18 15 22 76 6 86 -5 3 -10 26 -10 51 0 26 -5 44 -11 44 -8 0 -9 -14
-5 -43z"/>
<path d="M1190 1285 c0 -8 5 -15 10 -15 6 0 10 -15 10 -34 0 -30 -2 -33 -25
-28 -36 6 -84 -16 -100 -49 -18 -34 -19 -115 -2 -149 18 -35 77 -49 111 -26
14 9 26 12 26 6 0 -5 16 -10 35 -10 36 0 47 13 20 24 -12 4 -15 31 -15 151 l0
145 -35 0 c-24 0 -35 -5 -35 -15z m18 -192 c-3 -77 -3 -78 -31 -81 -42 -5 -57
13 -57 70 0 68 13 88 56 88 l35 0 -3 -77z"/>
<path d="M183 1190 c-38 -23 -58 -81 -47 -137 12 -64 64 -94 133 -77 56 14 48
40 -10 36 -40 -3 -49 0 -63 19 -22 32 -20 39 13 39 77 0 123 46 101 101 -18
43 -74 51 -127 19z m87 -45 c0 -26 -30 -45 -71 -45 -16 0 -19 4 -13 23 10 35
24 47 55 47 24 0 29 -4 29 -25z"/>
<path d="M410 1192 c-28 -14 -37 -26 -48 -64 -30 -110 47 -198 126 -142 12 8
22 10 22 5 0 -6 14 -11 30 -11 29 0 40 13 20 25 -6 3 -10 48 -10 99 l0 94 -31
6 c-49 10 -71 7 -109 -12z m90 -90 c0 -72 -10 -92 -46 -92 -44 0 -65 64 -40
123 13 33 19 37 50 37 l36 0 0 -68z"/>
<path d="M1546 1189 c-21 -17 -26 -18 -26 -5 0 12 -10 16 -35 16 -24 0 -35 -5
-35 -15 0 -8 7 -15 15 -15 12 0 15 -16 15 -80 0 -62 -3 -82 -15 -86 -31 -12
-13 -24 35 -24 38 0 50 4 50 15 0 8 -5 15 -10 15 -7 0 -10 27 -8 72 3 70 4 73
31 83 24 8 31 6 43 -10 20 -27 19 -144 -1 -151 -31 -12 -13 -24 35 -24 48 0
67 14 35 26 -12 5 -15 25 -15 90 0 74 -2 84 -22 98 -31 22 -60 20 -92 -5z"/>
<path d="M1778 1195 c-34 -19 -63 -92 -54 -138 12 -65 66 -98 135 -81 56 14
48 40 -10 36 -40 -3 -49 0 -63 19 -22 32 -20 39 13 39 51 0 89 19 100 51 24
70 -47 114 -121 74z m80 -52 c3 -17 -4 -26 -24 -33 -38 -15 -60 -9 -56 15 6
32 23 46 51 43 18 -2 27 -10 29 -25z"/>
<path d="M2031 1189 c-18 -19 -21 -20 -21 -6 0 13 -9 17 -35 17 -24 0 -35 -5
-35 -15 0 -8 7 -15 15 -15 12 0 15 -15 15 -79 0 -61 -3 -80 -15 -85 -33 -12
-12 -26 40 -26 42 0 55 3 55 15 0 8 -9 15 -20 15 -18 0 -20 7 -20 58 0 61 19
102 47 102 8 0 17 -9 20 -20 3 -11 14 -20 25 -20 16 0 19 6 16 38 -3 33 -6 37
-35 40 -22 2 -37 -3 -52 -19z"/>
<path d="M610 1170 c0 -23 4 -30 20 -30 11 0 20 7 20 15 0 11 11 15 41 15 32
0 39 -3 32 -12 -142 -182 -140 -178 -44 -178 66 0 69 -1 75 -26 18 -70 111
-100 159 -51 13 12 43 75 67 141 24 65 50 120 57 123 7 3 13 11 13 19 0 10
-13 14 -45 14 -32 0 -45 -4 -45 -14 0 -8 5 -16 10 -18 11 -3 -29 -128 -41
-128 -12 0 -41 124 -30 128 6 2 11 10 11 18 0 10 -14 14 -50 14 -38 0 -50 -4
-50 -15 0 -8 6 -15 13 -15 7 0 29 -44 50 -101 36 -95 37 -103 22 -125 -32 -49
-115 -16 -101 41 5 18 13 25 31 25 27 0 32 9 13 28 -18 18 -45 15 -68 -8 -13
-13 -33 -20 -60 -20 -22 0 -40 3 -40 6 0 3 27 41 60 83 33 43 60 83 60 89 0 8
-28 12 -90 12 l-90 0 0 -30z"/>
<path d="M1320 1185 c0 -8 7 -15 15 -15 12 0 15 -15 15 -79 0 -61 -3 -80 -15
-85 -32 -12 -13 -26 35 -26 38 0 50 4 50 15 0 8 -4 15 -10 15 -6 0 -10 38 -10
95 l0 95 -40 0 c-29 0 -40 -4 -40 -15z"/>
</g>
</svg>
