<?xml version="1.0" encoding="iso-8859-1"?>
<!-- Generator: Adobe Illustrator 19.0.0, SVG Export Plug-In . SVG Version: 6.00 Build 0)  -->
<svg version="1.1" id="Layer_1" xmlns="http://www.w3.org/2000/svg" xmlns:xlink="http://www.w3.org/1999/xlink" x="0px" y="0px"
	 viewBox="0 0 512 512" style="enable-background:new 0 0 512 512;" xml:space="preserve">
<rect x="4" y="109.86" style="fill:#FFFFFF;" width="503.997" height="358.494"/>
<g>
	<polygon style="fill:#EFEFEF;" points="369.968,431.176 142.032,431.176 104.664,459.592 407.336,459.592 	"/>
	<polygon style="fill:#EFEFEF;" points="113.32,431.176 47.632,431.176 10.256,459.592 76.072,459.592 	"/>
	<polygon style="fill:#EFEFEF;" points="464.368,431.176 398.68,431.176 435.929,459.592 501.744,459.592 	"/>
	<polygon style="fill:#EFEFEF;" points="369.968,147.792 142.032,147.792 104.664,119.376 407.336,119.376 	"/>
	<polygon style="fill:#EFEFEF;" points="113.32,147.792 47.632,147.792 10.256,119.376 76.072,119.376 	"/>
	<polygon style="fill:#EFEFEF;" points="464.368,147.792 398.68,147.792 435.929,119.376 501.744,119.376 	"/>
</g>
<path style="fill:#E5E5E5;" d="M504,113.856v350.496H8V113.856H504 M512,105.856H0v366.497h512V105.856z"/>
<path d="M0,119.376V55.64c0.027-8.826,7.174-15.973,16-16h479.961c8.826,0.027,15.973,7.174,16,16v63.728H0V119.376z"/>
<polygon style="fill:#FFFFFF;" points="471.624,101.512 171.536,101.512 200.24,57.512 471.624,57.512 "/>
<circle style="fill:#E21B1B;" cx="53.904" cy="78.912" r="13.608"/>
<circle style="fill:#939393;" cx="89.976" cy="78.912" r="13.608"/>
<circle style="fill:#CCCCCC;" cx="126.054" cy="78.912" r="13.608"/>
<path d="M215.624,71.248l1.912,8.312c0.416,1.952,0.8,3.944,1.168,5.936h0.08c0.376-1.992,0.976-4,1.504-5.896l2.4-8.352h3.76
	l2.296,8.128c0.56,2.144,1.048,4.136,1.464,6.128h0.08c0.296-1.992,0.712-4,1.2-6.128l2.032-8.128h4.544l-5.752,18.312h-4.312
	l-2.176-7.448c-0.566-1.929-1.031-3.886-1.392-5.864h-0.08c-0.337,1.982-0.801,3.941-1.392,5.864l-2.328,7.448h-4.328l-5.424-18.312
	L215.624,71.248L215.624,71.248z"/>
<path d="M244.392,71.248l1.912,8.312c0.416,1.952,0.8,3.944,1.168,5.936h0.08c0.376-1.992,0.976-4,1.504-5.896l2.4-8.352h3.76
	l2.296,8.128c0.559,2.144,1.048,4.136,1.464,6.128h0.08c0.296-1.992,0.712-4,1.2-6.128l2.032-8.128h4.544l-5.752,18.312h-4.288
	l-2.176-7.448c-0.566-1.929-1.031-3.886-1.392-5.864h-0.08c-0.337,1.982-0.801,3.941-1.392,5.864l-2.328,7.448h-4.328l-5.416-18.312
	L244.392,71.248L244.392,71.248z"/>
<path d="M273.16,71.248l1.912,8.312c0.416,1.952,0.8,3.944,1.168,5.936h0.08c0.376-1.992,0.976-4,1.504-5.896l2.4-8.352h3.76
	l2.296,8.128c0.56,2.144,1.048,4.136,1.464,6.128h0.08c0.296-1.992,0.712-4,1.2-6.128l2.032-8.128h4.544l-5.752,18.312h-4.328
	l-2.176-7.448c-0.566-1.929-1.031-3.886-1.392-5.864h-0.08c-0.336,1.982-0.801,3.941-1.392,5.864l-2.328,7.448h-4.328l-5.416-18.312
	L273.16,71.248L273.16,71.248z"/>
<path d="M296.313,87c-0.107-1.547,1.061-2.888,2.608-2.995c0.093-0.007,0.187-0.008,0.28-0.005c1.639,0.002,2.966,1.332,2.965,2.971
	c-0.002,1.637-1.328,2.963-2.965,2.965c-1.559,0.037-2.853-1.198-2.889-2.757C296.31,87.119,296.31,87.059,296.313,87z"/>
<polygon points="342.688,464.216 169.312,464.216 193.312,445.968 318.688,445.968 "/>
<rect y="459.591" width="512" height="12.768"/>
<polygon points="501.744,459.592 435.929,459.592 407.336,459.592 104.664,459.592 76.072,459.592 10.256,459.592 0,459.592 
	0,472.36 512,472.36 512,459.592 "/>
<polygon points="440.353,92.512 437.496,89.712 447.384,79.552 436.905,69.328 439.696,66.472 453.04,79.472 "/>
<rect x="421.619" y="77.513" width="26.416" height="4"/>
<g>
	<rect x="338.59" y="267.965" style="fill:#E21B1B;" width="24.128" height="94.821"/>
	<rect x="165.733" y="267.965" style="fill:#E21B1B;" width="24.128" height="94.821"/>
</g>
<rect x="264.047" y="385.078" width="123.952" height="24.128"/>
<rect x="140.451" y="385.078" style="fill:#3F3F3F;" width="123.952" height="24.128"/>
<path d="M260.72,354.872v-9.888c-5.301-0.017-10.493-1.51-14.992-4.312l2.344-6.568c4.199,2.73,9.095,4.194,14.104,4.216
	c6.952,0,11.656-4,11.656-9.6c0-5.392-3.824-8.72-11.072-11.656c-9.992-3.912-16.16-8.424-16.16-16.944
	c0.126-8.286,6.532-15.117,14.792-15.776v-9.896h6.072v9.496c4.472,0.035,8.859,1.217,12.743,3.432l-2.464,6.464
	c-3.728-2.221-7.996-3.373-12.336-3.328c-7.552,0-10.4,4.504-10.4,8.424c0,5.096,3.632,7.64,12.152,11.2
	c10.088,4.12,15.2,9.208,15.2,17.928c-0.16,8.687-6.829,15.862-15.48,16.656v10.184h-6.16L260.72,354.872L260.72,354.872z"/>
<g>
	<rect x="203.132" y="267.965" style="fill:#E21B1B;" width="24.128" height="94.821"/>
	<rect x="301.2" y="267.965" style="fill:#E21B1B;" width="24.128" height="94.821"/>
</g>
<path d="M264.224,169.6v31.552c7.023,0,12.716,5.693,12.716,12.716c0,7.023-5.693,12.716-12.716,12.716v20.216h115.145
	L264.224,169.6z"/>
<path style="fill:#3F3F3F;" d="M251.512,213.904c0-7.021,5.691-12.712,12.712-12.712l0,0V169.6l-115.144,77.232h115.144v-20.216
	C257.204,226.616,251.512,220.925,251.512,213.904z"/>
<g>
</g>
<g>
</g>
<g>
</g>
<g>
</g>
<g>
</g>
<g>
</g>
<g>
</g>
<g>
</g>
<g>
</g>
<g>
</g>
<g>
</g>
<g>
</g>
<g>
</g>
<g>
</g>
<g>
</g>
</svg>
